<?xml version="1.0" standalone="no"?>
<!DOCTYPE svg PUBLIC "-//W3C//DTD SVG 20010904//EN"
 "http://www.w3.org/TR/2001/REC-SVG-20010904/DTD/svg10.dtd">
<svg version="1.0" xmlns="http://www.w3.org/2000/svg"
 width="512.000000pt" height="512.000000pt" viewBox="0 0 512.000000 512.000000"
 preserveAspectRatio="xMidYMid meet">

<g transform="translate(0.000000,512.000000) scale(0.100000,-0.100000)"
fill="#eceff1" stroke="none">
<path d="M566 5058 c-14 -20 -16 -232 -16 -2061 0 -1468 3 -2044 11 -2060 16
-31 848 -865 881 -883 23 -12 248 -14 1563 -14 1522 0 1535 0 1555 20 20 20
20 33 20 2494 l0 2473 -21 27 -20 26 -1979 0 -1979 0 -15 -22z m1149 -369
c158 -59 269 -255 252 -443 -26 -281 -291 -458 -524 -351 -67 30 -151 110
-187 175 -124 228 -14 542 221 626 59 21 173 18 238 -7z m1373 -504 c72 -9
202 -86 202 -119 0 -19 -74 -115 -88 -116 -8 0 -41 16 -73 36 -105 65 -210 57
-298 -22 -68 -61 -95 -127 -89 -219 8 -111 59 -194 150 -239 90 -45 183 -33
268 34 21 16 44 30 51 30 14 0 89 -85 89 -101 0 -15 -85 -81 -141 -110 -157
-79 -343 -46 -465 83 -86 91 -115 169 -115 308 0 181 105 352 256 415 43 18
144 34 185 29 14 -2 44 -6 68 -9z m571 -300 c105 -286 122 -317 148 -283 5 7
54 135 108 283 54 149 102 276 108 283 15 19 153 16 161 -3 5 -15 -286 -797
-306 -822 -7 -9 -40 -13 -99 -13 -81 0 -90 2 -102 23 -29 45 -300 796 -294
812 6 13 21 15 88 13 l82 -3 106 -290z m-2199 -350 c59 -58 116 -105 125 -105
9 0 63 44 119 99 55 54 111 101 123 105 26 8 113 -33 193 -93 147 -109 267
-328 273 -498 3 -78 48 -73 -708 -73 -745 0 -715 -3 -715 64 0 59 38 185 82
269 56 108 191 246 293 300 39 20 78 37 89 37 10 0 66 -47 126 -105z m2714
-1039 c60 -25 97 -99 81 -163 -3 -15 -23 -44 -44 -65 l-39 -38 -1612 0 -1612
0 -39 38 c-21 21 -41 50 -44 65 -16 63 20 137 79 163 47 20 3181 20 3230 0z
m15 -761 c39 -23 71 -77 71 -118 0 -42 -28 -94 -64 -120 l-31 -22 -1570 -3
c-863 -2 -1589 0 -1613 3 -51 8 -107 57 -117 105 -16 73 28 149 98 169 19 6
665 9 1612 8 1561 -2 1580 -2 1614 -22z m-2491 -573 c10 -7 12 -100 10 -433
-3 -405 -4 -424 -22 -427 -13 -3 -130 107 -423 400 -222 221 -409 412 -415
422 -24 44 -2 46 431 46 223 0 412 -4 419 -8z m2489 -302 c92 -56 94 -177 4
-237 l-34 -23 -1066 0 c-1046 0 -1067 0 -1099 20 -94 57 -94 183 0 240 32 20
53 20 1098 20 1038 0 1066 -1 1097 -20z"/>
</g>
</svg>
